<?xml version="1.0" standalone="no"?>
<!DOCTYPE svg PUBLIC "-//W3C//DTD SVG 20010904//EN"
 "http://www.w3.org/TR/2001/REC-SVG-20010904/DTD/svg10.dtd">
<svg version="1.0" xmlns="http://www.w3.org/2000/svg"
 width="260.000000pt" height="260.000000pt" viewBox="0 0 260.000000 260.000000"
 preserveAspectRatio="xMidYMid meet">
<metadata>
Created by potrace 1.11, written by Peter Selinger 2001-2013
</metadata>
<g transform="translate(0.000000,260.000000) scale(0.100000,-0.100000)"
fill="#000000" stroke="none">
<path d="M184 2414 c-44 -21 -59 -56 -59 -133 0 -87 33 -188 100 -300 47 -80
139 -207 194 -270 249 -283 505 -500 706 -601 199 -100 332 -103 383 -9 21 39
10 126 -25 202 -18 37 -34 67 -37 67 -3 0 1 -21 9 -47 16 -52 19 -111 7 -129
-46 -70 -197 -18 -412 141 -165 122 -400 340 -495 460 -22 27 -48 59 -58 70
-32 36 -134 189 -161 243 -28 55 -36 116 -19 133 18 18 76 12 138 -14 87 -37
152 -74 315 -180 79 -52 150 -92 157 -90 30 12 7 46 -88 134 -285 265 -529
385 -655 323z"/>
<path d="M1555 2088 c-90 -11 -142 -27 -225 -69 -97 -49 -122 -67 -188 -131
-82 -81 -124 -174 -124 -281 0 -79 14 -131 52 -189 53 -80 149 -134 217 -122
46 8 48 22 7 33 -91 25 -118 69 -119 196 0 77 4 98 27 147 76 162 253 258 481
259 85 1 124 -15 160 -62 40 -54 32 -160 -18 -261 -13 -27 -21 -48 -17 -48 18
0 78 108 93 168 21 82 18 205 -5 249 -46 91 -175 133 -341 111z"/>
<path d="M1326 1655 c-61 -21 -83 -63 -72 -141 5 -43 47 -137 65 -148 4 -3 3
11 -5 32 -17 49 -17 103 0 127 37 51 172 -1 350 -135 137 -103 158 -121 301
-265 178 -178 325 -383 349 -487 5 -21 1 -33 -15 -49 -18 -18 -30 -21 -83 -17
-75 5 -164 45 -259 116 -37 29 -72 52 -78 52 -55 0 196 -204 335 -271 129 -63
212 -62 250 2 15 26 18 45 13 104 -13 173 -158 398 -436 675 -192 192 -354
313 -498 374 -53 22 -75 28 -153 40 -14 2 -43 -2 -64 -9z"/>
<path d="M1473 1398 c191 -105 180 -313 -32 -608 -173 -240 -358 -360 -572
-369 -178 -8 -253 90 -224 294 14 103 83 231 178 333 l52 56 -50 -38 c-168
-125 -287 -292 -325 -455 -18 -77 -8 -193 23 -262 50 -113 122 -167 235 -176
202 -16 456 126 700 392 173 188 260 356 270 521 11 198 -77 308 -273 338
l-40 6 58 -32z"/>
</g>
</svg>
